<?xml version="1.0" encoding="UTF-8"?>
<svg id="Layer_2" data-name="Layer 2" xmlns="http://www.w3.org/2000/svg" viewBox="0 0 666.29 187.9">
  <defs>
    <style>
      .cls-1 {
        fill: #fff;
        fill-rule: evenodd;
      }
    </style>
  </defs>
  <g id="Layer_1-2" data-name="Layer 1">
    <g>
      <g>
        <path id="Fill-1" class="cls-1" d="m620.7,17.76c-4.12.03-7.46,3.48-7.46,7.72s3.19,7.54,7.19,7.71h18.99s0,0,0,0c13.68,0,24.78,11.42,24.78,25.48s-11.04,25.41-24.67,25.48h-38.11c-1.21,0-1.81-.8-2.23-1.79l-5.53-13.71c-.52-1.23.33-2.26,1.31-2.26h44.56c4.11-.06,7.42-3.48,7.42-7.72s-3.32-7.65-7.42-7.71h-18.79c-13.68,0-24.78-11.42-24.78-25.48s11.1-25.48,24.78-25.48h39.38c1.21,0,2.19.8,1.77,1.8l-5.99,14.17c-.4.96-1.25,1.8-2.23,1.8h-32.92s-.05,0-.05,0"/>
        <path id="Fill-2" class="cls-1" d="m355.74,33.19l-20.94,48.15c-.69,1.54-1.05,2.8-2.57,2.8h-13.83c-1.98,0-3.08-.55-2.11-2.79L350.1,2.51c.69-1.31,1.12-2.27,2.64-2.27h5.99c1.52,0,1.95.96,2.64,2.27l33.82,78.85c.96,2.24-.13,2.8-2.11,2.8h-13.83c-1.52,0-1.88-1.26-2.57-2.8l-20.94-48.15"/>
        <path id="Fill-3" class="cls-1" d="m459.2,84.15c-.98,0-1.77-.8-1.77-1.8V1.8c0-.99.79-1.8,1.77-1.8h13.98c.98,0,1.77.8,1.77,1.8v64.59h35.57c.98,0,1.85,1.04,1.31,2.26l-5.76,13.71c-.54,1.23-1.25,1.8-2.46,1.8h-44.41"/>
        <path id="Fill-4" class="cls-1" d="m409.48,17.77h-22.2c-.98,0-1.77-.8-1.77-1.8V1.8c0-.99.79-1.8,1.77-1.8h61.92c.98,0,1.77.8,1.77,1.8v14.17c0,.99-.79,1.8-1.77,1.8h-22.2v64.59c0,.99-.79,1.8-1.77,1.8h-13.98c-.98,0-1.77-.8-1.77-1.8V17.77"/>
        <path id="Fill-5" class="cls-1" d="m552.53,33.19l-20.94,48.15c-.69,1.54-1.05,2.8-2.57,2.8h-13.83c-1.98,0-3.08-.55-2.11-2.79L546.89,2.51c.69-1.31,1.12-2.27,2.64-2.27h5.99c1.52,0,1.95.96,2.64,2.27l33.82,78.85c.96,2.24-.13,2.8-2.11,2.8h-13.83c-1.52,0-1.88-1.26-2.57-2.8l-20.94-48.15"/>
        <path id="Fill-6" class="cls-1" d="m217.62,0h37.19c14.38,0,26.05,12.2,26.05,27.23,0,11.3-6.6,21-15.98,25.12l19.19,29c.46,2.24-.82,2.8-2.8,2.8h-14.52c-1.52,0-2.11-1.49-3.03-2.8l-18.35-26.88h-11.99v27.89c0,.99-.79,1.8-1.77,1.8h-13.98c-.98,0-1.77-.8-1.77-1.8V1.8c0-.99.79-1.8,1.77-1.8Zm37.19,17.77h-21.44v18.93h21.44v-.04c4.98,0,9.02-4.22,9.02-9.43s-4.04-9.43-9.02-9.43v-.04h0Z"/>
        <path id="Fill-7" class="cls-1" d="m170.69,33.19l-20.94,48.15c-.69,1.54-1.05,2.8-2.57,2.8h-13.83c-1.98,0-3.08-.55-2.11-2.79L165.05,2.51c.69-1.31,1.12-2.27,2.64-2.27h5.99c1.52,0,1.95.96,2.64,2.27l33.82,78.85c.96,2.24-.13,2.8-2.11,2.8h-13.83c-1.52,0-1.88-1.26-2.57-2.8l-20.94-48.15"/>
        <path id="Fill-8" class="cls-1" d="m97.59,17.77h-24.97c-1.21,0-1.98-.8-1.38-2.26l5.84-13.71c.29-.71,1.02-1.8,2-1.8h58.24c.98,0,1.77.8,1.77,1.8v14.17c0,.99-.79,1.8-1.77,1.8h-22.2v64.59c0,.99-.79,1.8-1.77,1.8h-13.98c-.98,0-1.77-.8-1.77-1.8V17.77"/>
        <path id="Fill-9" class="cls-1" d="m28.5,17.76c-4.12.03-7.46,3.48-7.46,7.72s3.19,7.54,7.19,7.71h18.99s0,0,0,0c13.68,0,24.78,11.42,24.78,25.48s-11.04,25.41-24.67,25.48H3.93c-1.21,0-2.09-1.04-1.77-1.79l5.76-14.17c.22-.78,1.02-1.8,2-1.8h37.42c4.11-.06,7.42-3.48,7.42-7.72s-3.32-7.65-7.42-7.71h-18.79c-13.68,0-24.78-11.42-24.78-25.48S14.87,0,28.55,0h40.3c.98,0,1.9.69,1.54,1.8l-5.99,14.17c-.51,1.27-1.25,1.8-2.23,1.8H28.55s-.05,0-.05,0"/>
        <polyline id="Fill-10" class="cls-1" points="355.77 106.36 341.94 78.31 369.14 78.31 355.77 106.36"/>
      </g>
      <g>
        <path class="cls-1" d="m197.7,142.27h-1.9v7.35h1.9c2.15,0,3.4-1.4,3.4-3.75s-1.25-3.6-3.4-3.6Z"/>
        <path class="cls-1" d="m466.79,142.67h-.85v10.05h.85c3,0,4.6-1.6,4.6-5s-1.6-5.05-4.6-5.05Z"/>
        <path class="cls-1" d="m303.05,155.82h-2v8.3h2c2.4,0,3.75-1.5,3.75-4.15s-1.35-4.15-3.75-4.15Z"/>
        <path class="cls-1" d="m527.64,143.52c-5.3,0-8.9,4-8.9,9.75s3.6,9.75,8.9,9.75,8.95-4,8.95-9.75-3.65-9.75-8.95-9.75Z"/>
        <path class="cls-1" d="m253.2,143.42h-2.7v19.7h2.7c5.7,0,8.8-4.05,8.8-9.85s-3.1-9.85-8.8-9.85Z"/>
        <path class="cls-1" d="m306.1,145.87c0-2.25-1.3-3.6-3.45-3.6h-1.6v7.15h1.6c2.15,0,3.45-1.35,3.45-3.55Z"/>
        <path class="cls-1" d="m92.5,143.52c-5.3,0-8.9,4-8.9,9.75s3.6,9.75,8.9,9.75,8.95-4,8.95-9.75-3.65-9.75-8.95-9.75Z"/>
        <path class="cls-1" d="m55.3,142.67h-.85v10.05h.85c3,0,4.6-1.6,4.6-5s-1.6-5.05-4.6-5.05Z"/>
        <path class="cls-1" d="m562.54,142.67h-.85v10.05h.85c3,0,4.6-1.6,4.6-5s-1.6-5.05-4.6-5.05Z"/>
        <path class="cls-1" d="m0,118.97v68.93h666.29v-68.93H0Zm56.15,40.6h-1.7v11.15h-8.1v-34.9h9.8c7.3,0,11.75,4.4,11.75,11.8s-4.45,11.95-11.75,11.95Zm36.3,11.6c-10.5,0-17.6-7.2-17.6-17.9s7.1-17.9,17.6-17.9,17.7,7.25,17.7,17.9-7.1,17.9-17.7,17.9Zm58.2-.45h-10.85l-3.95-22.7h-.15l-4.05,22.7h-10.8l-4.65-34.9h8.05l2.6,25.35h.1l4.7-25.35h8.45l4.65,25.35h.15l2.6-25.35h8l-4.85,34.9Zm28.25,0h-15.6v-34.9h15.45v7.4h-7.35v6.6h6.3v6.85h-6.3v6.65h7.5v7.4Zm30.2-9.5v9.5h-8.15v-9.3c0-3.45-1-4.75-3.35-4.75h-1.8v14.05h-8.1v-34.9h11.85c5.95,0,9.6,3.35,9.6,9.15,0,4.3-2.2,7.1-5.25,8.1v.1c3.4.85,5.2,3.4,5.2,8.05Zm24.5,9.5h-15.6v-34.9h15.45v7.4h-7.35v6.6h6.3v6.85h-6.3v6.65h7.5v7.4Zm19.7,0h-10.9v-34.9h10.9c10.7,0,17.3,6.7,17.3,17.45s-6.6,17.45-17.3,17.45Zm51.3,0h-11.65v-34.9h11.3c6.05,0,9.6,3.35,9.6,8.6,0,4.05-2.1,6.5-4.7,7.6v.1c3.45,1.1,5.85,3.75,5.85,8.55,0,6-3.7,10.05-10.4,10.05Zm30.8-10.55v10.55h-8.4v-10.75l-7.25-24.15h8.35l3.15,15.2h.1l3.35-15.2h7.95l-7.25,24.35Zm44.6-16.8h-4.55v27.35h-8.1v-27.35h-4.6v-7.55h17.25v7.55Zm30.05,27.35h-8.1v-14.15h-5.75v14.15h-8.1v-34.9h8.1v13.25h5.75v-13.25h8.1v34.9Zm25,0h-15.6v-34.9h15.45v7.4h-7.35v6.6h6.3v6.85h-6.3v6.65h7.5v7.4Zm32.6-11.15h-1.7v11.15h-8.1v-34.9h9.8c7.3,0,11.75,4.4,11.75,11.8s-4.45,11.95-11.75,11.95Zm35.3,11.15h-15.6v-34.9h15.45v7.4h-7.35v6.6h6.3v6.85h-6.3v6.65h7.5v7.4Zm24.65.45c-10.5,0-17.6-7.2-17.6-17.9s7.1-17.9,17.6-17.9,17.7,7.25,17.7,17.9-7.1,17.9-17.7,17.9Zm35.8-11.6h-1.7v11.15h-8.1v-34.9h9.8c7.3,0,11.75,4.4,11.75,11.8s-4.45,11.95-11.75,11.95Zm33.5,11.15h-13.8v-34.9h8.1v27.35h5.7v7.55Zm23.7,0h-15.6v-34.9h15.45v7.4h-7.35v6.6h6.3v6.85h-6.3v6.65h7.5v7.4Z"/>
      </g>
    </g>
  </g>
</svg>